<svg width="20" height="23" viewBox="0 0 20 23" fill="none" xmlns="http://www.w3.org/2000/svg">
<path d="M5.49502 15.507L7.8866 18.1492L4.45313 21.9354C4.45288 21.9356 4.45264 21.9359 4.45239 21.9362C4.39309 22.0004 4.2982 22.0248 4.21532 21.9972L1.00417 20.9268C1.00382 20.9267 1.00348 20.9266 1.00313 20.9265C0.934622 20.9029 0.877967 20.8451 0.856584 20.7656C0.839632 20.7027 0.855487 20.6238 0.907975 20.5649C0.90821 20.5647 0.908445 20.5644 0.908682 20.5642L5.49502 15.507ZM14.5002 10.8512L11.9526 8.04343L12.9726 5.60347C13.1179 5.31262 13.2328 4.89897 13.0553 4.46381C12.8761 4.02442 12.4959 3.8073 12.2139 3.69741C11.6656 3.48375 10.8634 3.43571 9.99563 3.43571C9.12387 3.43571 8.3291 3.48462 7.77523 3.6946C7.48884 3.80317 7.13103 4.0048 6.93015 4.39841C6.71668 4.81667 6.78402 5.24182 6.91178 5.56122L6.93344 5.61535L6.96228 5.66602L9.25692 9.69727L9.30323 9.77862L9.36613 9.84795L12.9063 13.7497L12.9064 13.7498L19.087 20.5597C19.0873 20.56 19.0875 20.5602 19.0878 20.5605C19.1349 20.6134 19.1569 20.6907 19.1359 20.7735C19.1198 20.8371 19.0714 20.895 18.9926 20.922C18.9923 20.9221 18.9919 20.9222 18.9916 20.9224L15.7804 21.9927L15.7804 21.9927L15.7751 21.9945C15.6974 22.021 15.6073 22.001 15.5433 21.9317C15.5431 21.9314 15.5428 21.9312 15.5426 21.9309L13.0894 19.2262L10.6383 16.4387L10.6309 16.4302L10.6232 16.422L7.08179 12.6039L4.50011 9.75917C4.5001 9.75915 4.50008 9.75914 4.50007 9.75913C3.98598 9.19255 3.70278 8.45877 3.70278 7.69196V6.48661C3.70278 5.9426 3.84935 5.40688 4.12302 4.93667C4.12305 4.93662 4.12307 4.93658 4.1231 4.93654L5.65773 2.30447C5.65786 2.30424 5.658 2.304 5.65814 2.30377C6.058 1.62124 6.71211 1.10526 7.51758 0.998942L7.51907 0.998742C8.11484 0.919027 8.94324 0.85 9.99563 0.85C11.0479 0.85 11.8765 0.919005 12.4774 0.998845L12.4777 0.998882C13.2798 1.10518 13.938 1.62197 14.3374 2.30339C14.3376 2.30375 14.3378 2.30411 14.338 2.30447L15.8679 4.93614L15.8692 4.93823C16.1453 5.4102 16.2885 5.94052 16.2885 6.48661V7.69196C16.2885 8.45483 16.0049 9.19296 15.4912 9.75917L14.5002 10.8512Z" stroke="black" stroke-width="1.7"/>
<rect x="12.3083" y="15.7369" width="1.28836" height="0.872299" transform="rotate(48.5708 12.3083 15.7369)" fill="#E4E4E4"/>
</svg>
