<svg width="25" height="25" viewBox="0 0 25 25" fill="none" xmlns="http://www.w3.org/2000/svg">
<path d="M12.5 2.08333C14.5602 2.08333 16.5742 2.69426 18.2872 3.83886C20.0002 4.98345 21.3353 6.61031 22.1237 8.51371C22.9122 10.4171 23.1184 12.5115 22.7165 14.5322C22.3146 16.5528 21.3225 18.4089 19.8657 19.8657C18.4089 21.3225 16.5528 22.3146 14.5322 22.7165C12.5116 23.1184 10.4171 22.9121 8.51371 22.1237C6.61032 21.3353 4.98345 20.0002 3.83886 18.2872C2.69426 16.5742 2.08333 14.5602 2.08333 12.5C2.08333 12.2237 1.97359 11.9588 1.77824 11.7634C1.58289 11.5681 1.31793 11.4583 1.04167 11.4583C0.765399 11.4583 0.500448 11.5681 0.305097 11.7634C0.109747 11.9588 3.21169e-09 12.2237 3.21169e-09 12.5C-6.48501e-05 15.3621 0.982055 18.1375 2.78226 20.3626C4.58247 22.5876 7.09173 24.1275 9.89077 24.7249C12.6898 25.3223 15.6091 24.9411 18.1609 23.645C20.7127 22.3488 22.7423 20.2162 23.9108 17.6035C25.0793 14.9908 25.3158 12.0562 24.5808 9.29013C23.8457 6.52403 22.1837 4.09394 19.8725 2.40589C17.5612 0.717833 14.7406 -0.125932 11.882 0.0155697C9.0234 0.157072 6.29994 1.27527 4.16667 3.18333V1.04167C4.16667 0.765399 4.05692 0.500448 3.86157 0.305097C3.66622 0.109747 3.40127 0 3.125 0C2.84873 0 2.58378 0.109747 2.38843 0.305097C2.19308 0.500448 2.08333 0.765399 2.08333 1.04167V7.29166C2.08333 7.56793 2.19308 7.83288 2.38843 8.02823C2.58378 8.22358 2.84873 8.33333 3.125 8.33333H7.29166C7.56793 8.33333 7.83288 8.22358 8.02823 8.02823C8.22358 7.83288 8.33333 7.56793 8.33333 7.29166C8.33333 7.0154 8.22358 6.75044 8.02823 6.55509C7.83288 6.35974 7.56793 6.25 7.29166 6.25H4.16667C5.13605 4.95533 6.39403 3.90459 7.84064 3.18129C9.28726 2.45798 10.8826 2.08204 12.5 2.08333ZM12.5021 7.29166C12.5021 7.0154 12.3923 6.75044 12.197 6.55509C12.0016 6.35974 11.7367 6.25 11.4604 6.25C11.1841 6.25 10.9192 6.35974 10.7238 6.55509C10.5285 6.75044 10.4187 7.0154 10.4187 7.29166V13.5417C10.4187 13.8179 10.5285 14.0829 10.7238 14.2782C10.9192 14.4736 11.1841 14.5833 11.4604 14.5833H15.6271C15.9033 14.5833 16.1683 14.4736 16.3636 14.2782C16.559 14.0829 16.6687 13.8179 16.6687 13.5417C16.6687 13.2654 16.559 13.0004 16.3636 12.8051C16.1683 12.6097 15.9033 12.5 15.6271 12.5H12.5021V7.29166Z" fill="white"/>
</svg>
