<svg width="27" height="21" viewBox="0 0 27 21" fill="none" xmlns="http://www.w3.org/2000/svg">
<path d="M23.9167 1H3.08333C1.93274 1 1 1.93274 1 3.08333V17.6667C1 18.8173 1.93274 19.75 3.08333 19.75H23.9167C25.0673 19.75 26 18.8173 26 17.6667V3.08333C26 1.93274 25.0673 1 23.9167 1Z" stroke="black" stroke-width="2" stroke-linecap="round" stroke-linejoin="round"/>
<path d="M1 9.33333H8.39583C8.63573 9.332 8.86855 9.41457 9.05401 9.56674C9.23947 9.71891 9.36591 9.93112 9.41146 10.1667C9.61038 11.1035 10.125 11.9437 10.8693 12.5465C11.6135 13.1493 12.5422 13.4782 13.5 13.4782C14.4578 13.4782 15.3865 13.1493 16.1307 12.5465C16.875 11.9437 17.3896 11.1035 17.5885 10.1667C17.6341 9.93112 17.7605 9.71891 17.946 9.56674C18.1315 9.41457 18.3643 9.332 18.6042 9.33333H26" stroke="black" stroke-width="2" stroke-linecap="round" stroke-linejoin="round"/>
<path d="M1 5.16669H26" stroke="black" stroke-width="2" stroke-linecap="round" stroke-linejoin="round"/>
</svg>
